# xmcd CD database file
#
# Track frame offsets:
#	150
#	31264
#	49747
#	63740
#	83173
#	102089
#	121017
#	137725
#	154303
#	173610
#	192723
#	211901
#	228559
#	246805
#
# Disc length: 3537 seconds
#
# Revision: 0
# Processed by: cddbd v1.5.1PL0 Copyright (c) Steve Scherf et al.
# Submitted via: CDex 1.51
#
DISCID=be0dcf0e
DTITLE=Various Artist - Wip3out
DYEAR=1999
DGENRE=Trance
TTITLE0=データ
TTITLE1=Feisar - Sasha
TTITLE2=Kittens - Underworld
TTITLE3=Icaras - Sasha
TTITLE4=Know Where To Run - Orbital
TTITLE5=Auricom - Sasha
TTITLE6=Surrender - MKL
TTITLE7=Lethal Cut - Propellerheads
TTITLE8=Goteki 45 - Sasha
TTITLE9=Under The Influence - The Chemical Brothers
TTITLE10=Pirhana - Sasha
TTITLE11=Control - MKL
TTITLE12=Avenue - Paul Van Dyk
TTITLE13=Xpander - Sasha
EXTD=YEAR: 1999
EXTT0=
EXTT1=
EXTT2=
EXTT3=
EXTT4=
EXTT5=
EXTT6=
EXTT7=
EXTT8=
EXTT9=
EXTT10=
EXTT11=
EXTT12=
EXTT13=
PLAYORDER=
